<svg xmlns="http://www.w3.org/2000/svg" width="152" height="26"><g fill="none" fill-rule="evenodd"><path fill="#DD6461" d="M14.896.277c1.377-.26 3.25.416 4.182 1.512l5.527 6.489c.933 1.095 1.325 3.092.877 4.46l-2.617 7.99c-.448 1.367-1.928 2.686-3.305 2.947l-8.158 1.542c-1.377.26-3.25-.416-4.182-1.512l-5.526-6.489C.76 16.121.368 14.124.816 12.756l2.618-7.99C3.882 3.4 5.36 2.08 6.738 1.82L14.896.277Z"/><path fill="#613433" d="M7.577 13.695a1.329 1.329 0 1 0-.505-2.609 1.329 1.329 0 0 0 .505 2.609ZM18.67 11.538a1.329 1.329 0 1 0-.505-2.608 1.329 1.329 0 0 0 .506 2.608ZM12.536 19.771c1.078.228 2.899-.126 3.813-.74a5 5 0 0 0 2.097-3.106c.229-1.076-.861-1.808-1.942-1.598l-5.873 1.141c-1.082.21-1.818 1.297-1.203 2.21a5 5 0 0 0 3.108 2.093Z"/><path fill="#AB4F4F" d="M12.082 19.297c.347.118.937.219 1.304.213a6.425 6.425 0 0 0 2.077-.404 4.66 4.66 0 0 0 1.13-.686c.332-.287.616-.618.842-.98.194-.312.07-.777-.26-.941-.741-.371-1.692-.544-2.709-.456a7.6 7.6 0 0 0-1.303.254c-.976.3-1.793.815-2.342 1.437-.243.275-.184.753.112.969.345.252.733.452 1.149.594Z"/><path fill="#38444F" d="M41.234 14.533c0 2.663-1.478 4.019-3.66 4.019-2.206 0-3.685-1.356-3.685-4.019v-9.66c0-.726-.437-1.162-1.067-1.162-.655 0-1.09.436-1.09 1.162v9.66c0 4.019 2.326 6.028 5.817 6.028 3.54 0 5.843-2.01 5.843-6.028v-9.66c0-.726-.436-1.162-1.067-1.162-.654 0-1.09.436-1.09 1.162v9.66Zm9.12 6.028c3.079 0 4.727-1.5 4.727-3.776 0-1.889-1.066-3.027-3.49-3.293l-1.213-.121c-1.745-.17-2.279-.654-2.279-1.574 0-.944.752-1.598 2.206-1.598.922 0 1.794.242 2.57.606.315.145.534.193.728.193a.869.869 0 0 0 .872-.871c0-.363-.194-.63-.606-.848-.897-.508-2.109-.847-3.467-.847-2.715 0-4.29 1.332-4.29 3.535 0 1.864 1.187 3.026 3.466 3.268l1.212.121c1.843.194 2.28.678 2.28 1.646 0 1.017-.874 1.744-2.546 1.744-1.31 0-2.303-.46-3.249-1.017-.29-.17-.485-.218-.679-.218a.926.926 0 0 0-.945.92c0 .339.17.63.485.847.97.678 2.448 1.283 4.218 1.283Zm16.417-1.694-.412-.75c-.17-.34-.219-.582-.219-1.187v-4.164c0-2.857-1.454-4.334-4.557-4.334-1.6 0-2.813.387-3.54.872a.924.924 0 0 0-.485.823c0 .532.34.871.873.871.17 0 .388-.072.582-.17a5.53 5.53 0 0 1 2.376-.58c2.036 0 2.788.92 2.788 2.542v.557c0 .097-.049.145-.146.145H61.39c-2.885 0-4.534 1.186-4.534 3.583 0 2.203 1.503 3.486 4.097 3.486 1.697 0 2.788-.508 3.564-1.38h.024l.461.727c.242.339.533.508.897.508.606 0 1.042-.411 1.042-.968 0-.194-.072-.412-.17-.581Zm-5.528-.049c-1.551 0-2.424-.605-2.424-1.816 0-1.307.897-1.888 2.885-1.888h2.327c.097 0 .146.048.146.145v1.283c0 1.429-1.14 2.276-2.934 2.276Zm8.95 1.598c.582 0 1.018-.411 1.018-1.09v-.314h.025c.557.92 1.575 1.55 3.297 1.55 1.963 0 3.394-1.09 4-2.906.29-.92.412-1.84.412-3.171 0-1.308-.121-2.228-.412-3.148-.606-1.816-2.037-2.905-4-2.905-1.746 0-2.764.654-3.297 1.55h-.025V4.8c0-.678-.436-1.09-1.018-1.09-.582 0-1.018.412-1.018 1.09v14.527c0 .678.436 1.09 1.018 1.09Zm3.855-1.743c-1.31 0-2.182-.654-2.57-1.816-.218-.63-.267-1.356-.267-2.372 0-.993.049-1.72.267-2.349.388-1.162 1.26-1.816 2.57-1.816 1.285 0 2.157.654 2.545 1.816.219.63.267 1.356.267 2.349 0 1.016-.048 1.743-.267 2.372-.388 1.162-1.26 1.816-2.545 1.816Zm8.32-12.299c.727 0 1.333-.605 1.333-1.332 0-.75-.606-1.331-1.334-1.331-.727 0-1.333.58-1.333 1.331 0 .727.606 1.332 1.333 1.332Zm-1.019 12.953c0 .678.436 1.09 1.018 1.09.582 0 1.019-.412 1.019-1.09v-9.66c0-.678-.437-1.09-1.019-1.09-.582 0-1.018.412-1.018 1.09v9.66Zm8.15 1.09c.679 0 1.042-.388 1.042-.945 0-.557-.363-.944-.945-.944-.8 0-1.115-.363-1.115-1.332V4.8c0-.678-.437-1.09-1.019-1.09-.581 0-1.018.412-1.018 1.09v12.517c0 2.082.752 3.1 2.837 3.1h.218Zm3.907-14.043c.727 0 1.334-.605 1.334-1.332 0-.75-.607-1.331-1.334-1.331-.727 0-1.333.58-1.333 1.331 0 .727.606 1.332 1.333 1.332Zm-1.018 12.953c0 .678.436 1.09 1.018 1.09.582 0 1.018-.412 1.018-1.09v-9.66c0-.678-.436-1.09-1.018-1.09-.582 0-1.018.412-1.018 1.09v9.66Zm8.877 1.09c.727 0 1.091-.388 1.091-.945 0-.557-.364-.944-.994-.944-1.236 0-1.552-.363-1.552-1.598v-6.44c0-.097.049-.145.146-.145h1.527c.558 0 .873-.34.873-.824 0-.484-.315-.823-.873-.823h-1.527c-.097 0-.146-.048-.146-.145V6.011c0-.678-.436-1.09-1.018-1.09-.582 0-1.018.412-1.018 1.09v2.542c0 .097-.048.145-.145.145h-.655c-.558 0-.873.34-.873.823 0 .485.315.824.873.824h.655c.097 0 .145.048.145.145v6.512c0 2.422.873 3.414 3.249 3.414h.242Zm3.786 4.236c1.673 0 2.594-.605 3.612-3.22l4.364-11.427c.049-.146.097-.315.097-.485 0-.532-.388-.944-.994-.944-.46 0-.776.242-.945.727l-2.91 8.013h-.048l-3.03-8.013c-.17-.485-.485-.727-.97-.727-.582 0-1.018.412-1.018.944 0 .17.048.34.097.485l3.951 9.95-.388 1.065c-.509 1.38-1.066 1.744-2.012 1.744-.63 0-.994.411-.994.944 0 .532.364.944.994.944h.194Zm10.065-5.399c0 .726.437 1.162 1.091 1.162.63 0 1.067-.436 1.067-1.162v-6.125c0-.097.048-.145.145-.145h7.152c.097 0 .145.048.145.145v6.125c0 .726.437 1.162 1.091 1.162.63 0 1.067-.436 1.067-1.162V4.873c0-.726-.436-1.162-1.067-1.162-.654 0-1.09.436-1.09 1.162v5.956c0 .097-.049.145-.146.145h-7.152c-.097 0-.145-.048-.145-.145V4.873c0-.726-.437-1.162-1.067-1.162-.654 0-1.09.436-1.09 1.162v14.381Zm24.005-9.587c0-.678-.436-1.09-1.018-1.09-.582 0-1.018.412-1.018 1.09v6.173c0 1.72-1.043 2.833-2.619 2.833-1.745 0-2.57-1.09-2.57-2.954V9.667c0-.678-.436-1.09-1.018-1.09-.582 0-1.018.412-1.018 1.09v6.537c0 2.638 1.479 4.357 4 4.357 1.576 0 2.643-.677 3.2-1.573h.025v.339c0 .678.436 1.09 1.018 1.09.582 0 1.018-.412 1.018-1.09v-9.66Zm4.125 10.75c.582 0 1.019-.412 1.019-1.09v-.315h.024c.558.92 1.576 1.55 3.297 1.55 1.964 0 3.394-1.09 4-2.906.291-.92.412-1.84.412-3.171 0-1.308-.12-2.228-.412-3.148-.606-1.816-2.036-2.905-4-2.905-1.745 0-2.764.654-3.297 1.55h-.024V4.8c0-.678-.437-1.09-1.019-1.09-.581 0-1.018.412-1.018 1.09v14.527c0 .678.437 1.09 1.018 1.09Zm3.855-1.744c-1.309 0-2.182-.654-2.57-1.816-.218-.63-.266-1.356-.266-2.372 0-.993.048-1.72.266-2.349.388-1.162 1.261-1.816 2.57-1.816 1.285 0 2.158.654 2.546 1.816.218.63.266 1.356.266 2.349 0 1.016-.048 1.743-.266 2.372-.388 1.162-1.261 1.816-2.546 1.816Z"/></g></svg>