<svg xmlns="http://www.w3.org/2000/svg" width="80" height="80"><g fill="none" fill-rule="evenodd"><path fill="#4DADF7" d="M40 80c30.091 0 40-5.909 40-40S70.091 0 40 0 0 9.909 0 40s9.909 40 40 40Z"/><path fill="#FFF" fill-rule="nonzero" d="M48.63 33.82c1.271-1.516 1.973-3.419 1.973-5.355v-3.1a.991.991 0 0 0-.995-.99H30.37a.99.99 0 0 0-.995.99v3.1c0 1.936.7 3.837 1.973 5.354l4.094 4.882c.753.899.758 2.156.012 3.06l-4.153 5.034a8.369 8.369 0 0 0-1.926 5.3v3.125c0 .55.443.997.995.997h19.238c.55 0 .995-.44.995-.997v-3.125c0-1.91-.686-3.792-1.927-5.299l-4.153-5.034a2.364 2.364 0 0 1 .012-3.06l4.095-4.882Z"/></g></svg>