<svg xmlns="http://www.w3.org/2000/svg" width="80" height="80" fill="none"><path fill="#F472B6" fill-rule="evenodd" d="M40 80c30.091 0 40-7.909 40-40S70.091 0 40 0 0 9.909 0 40s9.909 40 40 40Z" clip-rule="evenodd"/><path fill="#fff" fill-rule="evenodd" d="M57.707 19.793c-.78-1.277-2.634-1.277-3.414 0L47.316 31.21c-.899 1.471.36 3.314 2.057 3.012L53 33.577V49c0 4.08-2.445 6-5 6s-5-1.92-5-6V35c0-6.965-4.718-12-11-12s-11 5.035-11 12v20a3 3 0 1 0 6 0V35c0-4.08 2.445-6 5-6s5 1.92 5 6v14c0 6.965 4.718 12 11 12s11-5.035 11-12V33.577l3.627.645c1.697.302 2.956-1.54 2.057-3.012l-6.977-11.417Z" clip-rule="evenodd"/></svg>