<svg xmlns="http://www.w3.org/2000/svg" width="81" height="81"><g fill="none" fill-rule="evenodd"><path fill="#FAB005" d="M40.5 81C70.968 81 81 70.968 81 40.5S70.968 0 40.5 0 0 10.032 0 40.5 10.032 81 40.5 81Z"/><path fill="#FFF" d="M39.983 48.17h-.317c-1.214 0-2.111-.898-2.27-2.112l-.527-4.54c-.211-1.424.633-2.48 2.058-2.638 4.961-.475 7.706-2.375 7.706-5.7v-.106c0-2.956-2.27-5.014-6.07-5.014-2.797 0-5.067 1.003-7.178 2.903-.528.422-1.214.739-1.953.739-1.636 0-2.955-1.32-2.955-2.903 0-.792.316-1.636 1.055-2.27 2.798-2.639 6.334-4.38 11.19-4.38 7.389 0 12.403 4.116 12.403 10.714v.105c0 6.65-4.803 9.66-10.662 10.662l-.21 2.428c-.212 1.161-1.056 2.111-2.27 2.111Zm-4.064 7.494c0-2.058 1.583-3.642 3.747-3.642 2.164 0 3.747 1.584 3.747 3.642v.528c0 2.058-1.583 3.642-3.747 3.642-2.164 0-3.747-1.584-3.747-3.642v-.528Z"/></g></svg>