<svg xmlns="http://www.w3.org/2000/svg" width="16" height="14"><path fill="#8BA6C0" fill-rule="nonzero" d="M15.746 1.57a6.336 6.336 0 0 1-1.104.372A3.44 3.44 0 0 0 15.55.496a.18.18 0 0 0-.264-.21A6.366 6.366 0 0 1 13.6.983a.447.447 0 0 1-.4-.1 3.45 3.45 0 0 0-2.283-.861c-.364 0-.732.056-1.093.168a3.342 3.342 0 0 0-2.252 2.408 3.68 3.68 0 0 0-.082 1.27.128.128 0 0 1-.138.14A9.045 9.045 0 0 1 1.134.686.18.18 0 0 0 .839.71a3.447 3.447 0 0 0-.467 1.735c0 .935.376 1.816 1.028 2.458a3.091 3.091 0 0 1-.786-.304.18.18 0 0 0-.268.155A3.454 3.454 0 0 0 2.36 7.935a3.09 3.09 0 0 1-.654-.054.18.18 0 0 0-.206.232 3.457 3.457 0 0 0 2.73 2.351 6.365 6.365 0 0 1-3.564 1.083h-.4a.264.264 0 0 0-.258.199.273.273 0 0 0 .131.302 9.468 9.468 0 0 0 4.758 1.283c1.462 0 2.83-.29 4.065-.863a8.978 8.978 0 0 0 2.975-2.229 9.773 9.773 0 0 0 1.821-3.05 9.637 9.637 0 0 0 .62-3.34v-.052c0-.177.08-.343.22-.457.529-.43.99-.937 1.37-1.505.101-.15-.057-.339-.222-.265Z"/></svg>