<svg xmlns="http://www.w3.org/2000/svg" width="64" height="55"><path fill="#EBF2FA" fill-rule="evenodd" d="M64 8.59c-9.652 4.772-14.479 10.38-14.479 16.822 4.115.477 7.517 2.168 10.207 5.07 2.69 2.904 4.035 6.264 4.035 10.082 0 4.056-1.306 7.476-3.917 10.26-2.61 2.784-5.894 4.176-9.85 4.176-4.43 0-8.268-1.81-11.512-5.428-3.243-3.62-4.865-8.014-4.865-13.184C33.619 20.878 42.242 8.75 59.49 0L64 8.59Zm-33.619 0c-9.731 4.772-14.597 10.38-14.597 16.822 4.193.477 7.635 2.168 10.325 5.07 2.69 2.904 4.035 6.264 4.035 10.082 0 4.056-1.325 7.476-3.976 10.26-2.65 2.784-5.953 4.176-9.91 4.176-4.43 0-8.247-1.81-11.452-5.428C1.602 45.952 0 41.558 0 36.388 0 20.878 8.584 8.75 25.753 0l4.628 8.59Z"/></svg>